<svg xmlns="http://www.w3.org/2000/svg" width="1107" height="310" fill="none" viewBox="0 0 1107 310">
  <g clip-path="url(#a)">
    <path fill="#fff" d="M0 22.419v42.654c0 .908 1.133 1.402 1.799.785 7.63-7.068 39.336-32.84 91.299-27.74 43.449 7.19 76.104 33.476 92.604 74.226 20.72 51.171-2.463 111.093-46.795 137.636-32.753 19.612-78.035 45.381-89.104 51.664-.827.469-.604 1.683.34 1.795 12 1.419 59.142 5.666 89.747-10.692 46.795-23.103 72.899-57.019 86.693-101.752 13.79-71.275-4.43-118.465-58.614-162.215C80.596-29.19 6.354 17.677.387 21.636c-.272.18-.386.456-.386.783Z"/>
    <path fill="#fff" d="M36.944 221.238V87.885c0-.737-.751-1.206-1.39-.838-5.927 3.422-29.09 18.917-35.538 55.196a.963.963 0 0 0-.015.172c-.002 40.477 0 130.352 0 143.736 0 .773.794 1.216 1.461.826 10.59-6.197 76.417-44.68 120.698-69.93 10.834-7.373 20.687-17.319 27.584-32.443 8.371-18.679 8.371-37.85 2.463-58.495-6.899-18.188-18.721-31.951-38.914-43.257-16.069-8.234-35.961-8.063-40.449-7.907a.965.965 0 0 0-.927.98v74.007a1 1 0 0 0 1.502.865l36.619-21.279c.449-.26 1.014-.141 1.294.295 1.921 2.996 8.647 14.457 7.38 26.281-1.08 13.554-7.882 22.12-17.733 29.985-21.813 13.059-55.21 31.901-62.568 36.042-.666.375-1.467-.119-1.467-.883Zm304.131 32.497 14.03 31.05 18.515-47.38c1.61-4.14 2.415-7.207 2.415-9.2 0-1.993-.958-3.182-2.875-3.565l-4.715-.92v-1.84c.767.23 3.68.345 8.74.345 5.137 0 8.318-.115 9.545-.345v1.84l-3.45 1.035c-1.15.383-2.032.92-2.645 1.61-.613.69-1.227 1.878-1.84 3.565l-24.955 66.7h-2.415l-15.065-33.005-15.985 33.005h-2.415l-25.645-63.595c-1.457-3.527-2.53-5.75-3.22-6.67-.613-.92-1.495-1.533-2.645-1.84l-3.335-.805v-1.84c1.917.23 5.482.345 10.695.345 5.29 0 9.315-.115 12.075-.345v1.84l-5.405 1.035c-.613.077-.92.422-.92 1.035 0 .997.843 3.603 2.53 7.82l20.815 52.44 11.96-25.645-11.96-27.485c-1.533-3.373-2.645-5.52-3.335-6.44-.69-.997-1.533-1.572-2.53-1.725l-5.635-1.035v-1.84c2.147.23 6.632.345 13.455.345s11.078-.115 12.765-.345v1.84l-6.67 1.265c-.69.077-1.035.498-1.035 1.265 0 .767.843 3.182 2.53 7.245l7.015 16.675 9.085-20.24a5.338 5.338 0 0 0 .575-2.415c0-.843-.307-1.533-.92-2.07-.537-.613-1.112-.958-1.725-1.035l-3.91-.69v-1.84c1.917.23 5.52.345 10.81.345 5.29 0 8.663-.115 10.12-.345v1.84l-5.405 1.035c-2.607.537-4.6 2.3-5.98 5.29l-11.04 23.69Zm118.714 21.735c-1.687 7.053-2.645 13.378-2.875 18.975-9.507-.23-20.7-.345-33.58-.345-12.88 0-24.073.115-33.58.345v-1.955l8.28-.575c1.303-.077 2.185-.345 2.645-.805.537-.46.805-1.533.805-3.22v-57.845c0-1.84-.23-3.143-.69-3.91-.383-.843-1.112-1.303-2.185-1.38l-8.395-.805v-2.07c6.21.23 16.56.345 31.05.345 14.49 0 24.763-.115 30.82-.345-.23 2.377-.345 5.022-.345 7.935 0 2.913.077 5.597.23 8.05h-1.495c-1.687-4.217-2.99-7.207-3.91-8.97-.92-1.84-1.763-3.028-2.53-3.565-.767-.537-1.802-.805-3.105-.805h-26.68c-1.303 0-2.185.383-2.645 1.15-.46.69-.69 1.917-.69 3.68v26.45h25.875c1.303 0 2.262-.192 2.875-.575.613-.46 1.073-1.418 1.38-2.875l1.495-8.05h2.3a276.302 276.302 0 0 0 0 27.6h-1.38l-2.53-8.97c-.537-1.687-1.303-2.837-2.3-3.45-.997-.69-2.492-1.035-4.485-1.035h-23.23v28.635c0 1.687.307 2.875.92 3.565.613.613 1.917.92 3.91.92h25.53c2.3 0 4.217-.345 5.75-1.035 1.61-.767 3.22-2.3 4.83-4.6 1.687-2.3 3.565-5.788 5.635-10.465h2.3Zm4.169-50.945v-1.955l6.785-.345c14.413-.767 22.847-1.15 25.3-1.15 8.587 0 15.142 1.495 19.665 4.485 4.523 2.913 6.785 7.207 6.785 12.88 0 5.673-4.14 10.35-12.42 14.03 11.807 3.22 17.71 9.852 17.71 19.895 0 4.14-1.342 7.973-4.025 11.5-2.683 3.45-6.363 6.057-11.04 7.82-4.6 1.687-9.698 2.53-15.295 2.53l-23.92-.115h-8.165v-1.84l7.245-1.38c1.457-.307 2.492-.843 3.105-1.61.613-.843.92-2.377.92-4.6v-55.66c0-1.227-.23-2.108-.69-2.645-.383-.537-1.878-.92-4.485-1.15l-7.475-.69Zm22.08 28.635c1.303.23 4.485.345 9.545.345s9.2-1.457 12.42-4.37c3.297-2.99 4.945-6.785 4.945-11.385s-1.572-8.05-4.715-10.35c-3.143-2.377-7.667-3.565-13.57-3.565-2.99 0-5.865.345-8.625 1.035v28.29Zm0 3.45v25.76c0 5.827 4.485 8.74 13.455 8.74 4.907 0 9.2-1.687 12.88-5.06 3.68-3.45 5.52-7.398 5.52-11.845 0-6.133-1.917-10.657-5.75-13.57-3.757-2.99-9.545-4.485-17.365-4.485-2.683 0-5.597.153-8.74.46Zm89.612-25.875c0-1.84-.23-3.143-.69-3.91-.46-.767-1.342-1.265-2.645-1.495l-7.82-1.38v-1.84c4.907.153 10.887.038 17.94-.345 7.053-.46 13.187-.69 18.4-.69 5.213 0 10.005.422 14.375 1.265a39.128 39.128 0 0 1 12.305 4.6c3.91 2.223 7.092 4.83 9.545 7.82 2.53 2.913 4.485 6.287 5.865 10.12 1.38 3.833 2.07 7.897 2.07 12.19 0 7.207-1.993 14.145-5.98 20.815-3.987 6.593-9.162 10.963-15.525 13.11-6.363 2.147-12.535 3.22-18.515 3.22l-18.63-.46h-23v-1.84l8.97-1.955c1.227-.23 2.07-.728 2.53-1.495.537-.767.805-2.223.805-4.37v-53.36Zm9.43 50.6c0 2.453 1.303 4.753 3.91 6.9 2.683 2.07 6.517 3.105 11.5 3.105 8.817 0 16.522-2.875 23.115-8.625 6.67-5.827 10.005-14.528 10.005-26.105 0-10.12-3.45-18.093-10.35-23.92-6.9-5.827-16.483-8.74-28.75-8.74-4.14 0-6.747.422-7.82 1.265-1.073.767-1.61 2.607-1.61 5.52v50.6Zm138.401-5.865c-1.687 7.053-2.645 13.378-2.875 18.975-9.507-.23-20.7-.345-33.58-.345-12.88 0-24.074.115-33.58.345v-1.955l8.28-.575c1.303-.077 2.185-.345 2.645-.805.536-.46.805-1.533.805-3.22v-57.845c0-1.84-.23-3.143-.69-3.91-.384-.843-1.112-1.303-2.185-1.38l-8.395-.805v-2.07c6.21.23 16.56.345 31.05.345 14.49 0 24.763-.115 30.82-.345-.23 2.377-.345 5.022-.345 7.935 0 2.913.076 5.597.23 8.05h-1.495c-1.687-4.217-2.99-7.207-3.91-8.97-.92-1.84-1.764-3.028-2.53-3.565-.767-.537-1.802-.805-3.105-.805h-26.68c-1.304 0-2.185.383-2.645 1.15-.46.69-.69 1.917-.69 3.68v26.45h25.875c1.303 0 2.261-.192 2.875-.575.613-.46 1.073-1.418 1.38-2.875l1.495-8.05h2.3a276.302 276.302 0 0 0 0 27.6h-1.38l-2.53-8.97c-.537-1.687-1.304-2.837-2.3-3.45-.997-.69-2.492-1.035-4.485-1.035h-23.23v28.635c0 1.687.306 2.875.92 3.565.613.613 1.916.92 3.91.92h25.53c2.3 0 4.216-.345 5.75-1.035 1.61-.767 3.22-2.3 4.83-4.6 1.686-2.3 3.565-5.788 5.635-10.465h2.3Zm45.913-36.225c-2.223-10.043-7.743-15.065-16.56-15.065-4.14 0-7.628 1.188-10.465 3.565-2.76 2.377-4.14 5.175-4.14 8.395 0 2.53 1.112 4.868 3.335 7.015 2.3 2.147 7.054 5.098 14.26 8.855 7.207 3.68 12.42 6.938 15.64 9.775 3.297 2.837 4.945 7.053 4.945 12.65 0 6.44-2.261 11.653-6.785 15.64-4.446 3.91-10.695 5.865-18.745 5.865-7.436 0-14.221-1.802-20.355-5.405l1.265-17.135h1.61c.69 5.673 2.99 10.35 6.9 14.03 3.91 3.603 8.165 5.405 12.765 5.405 4.677 0 8.549-1.342 11.615-4.025 3.144-2.683 4.715-5.788 4.715-9.315 0-3.603-1.265-6.555-3.795-8.855-2.453-2.3-7.13-5.213-14.03-8.74-6.823-3.603-11.806-7.092-14.95-10.465-3.143-3.373-4.715-7.245-4.715-11.615 0-5.443 2.109-9.928 6.325-13.455 4.217-3.527 9.699-5.29 16.445-5.29 6.747 0 12.305 1.687 16.675 5.06l-.46 13.11h-1.495Zm27.775 48.645v-59.455c0-1.303-.23-2.223-.69-2.76-.384-.537-1.112-.843-2.185-.92l-10.12-1.035v-1.84c.843.23 8.893.345 24.15.345 4.523 0 8.126-.115 10.81-.345v1.955l-10.12 1.035c-1.074.077-1.84.345-2.3.805-.384.46-.575 1.38-.575 2.76v59.455c0 1.303.191 2.185.575 2.645.383.383 1.15.613 2.3.69l10.12.575v2.76c-3.067-.307-8.894-.46-17.48-.46-8.587 0-14.414.153-17.48.46v-2.76l10.12-.575c1.15-.153 1.916-.422 2.3-.805.383-.383.575-1.227.575-2.53Zm111.724-23.805-7.475.805c-1.303.153-2.223.46-2.76.92-.46.46-.69 1.227-.69 2.3v12.765c0 2.683-.077 4.523-.23 5.52a6.25 6.25 0 0 1-1.15 2.76c-.537.767-2.338 1.763-5.405 2.99-2.99 1.15-6.478 2.07-10.465 2.76s-8.127 1.035-12.42 1.035c-12.573 0-22.578-3.335-30.015-10.005-7.437-6.67-11.155-15.372-11.155-26.105 0-11.423 4.102-20.738 12.305-27.945 8.28-7.207 18.898-10.81 31.855-10.81 10.197 0 18.707 1.84 25.53 5.52l.92 13.8-1.61.345c-4.753-11.423-12.497-17.135-23.23-17.135-10.657 0-19.052 3.143-25.185 9.43-6.133 6.287-9.2 14.758-9.2 25.415 0 9.277 3.143 17.403 9.43 24.38 6.363 6.9 14.145 10.35 23.345 10.35 11.5 0 17.25-4.102 17.25-12.305V268.11c0-1.15-.307-1.955-.92-2.415-.537-.46-1.418-.728-2.645-.805l-11.04-.805v-2.07c5.903.307 11.692.46 17.365.46 5.75 0 11.615-.153 17.595-.46v2.07Zm18.686 22.31c0 1.917.23 3.22.69 3.91.46.613 1.418.997 2.875 1.15l10.58 1.15v1.84c-4.6-.23-9.2-.345-13.8-.345-4.6 0-9.929.115-15.985.345v-1.84l6.325-1.15c2.606-.46 4.255-.997 4.945-1.61.766-.613 1.15-1.763 1.15-3.45v-50.14c0-3.527-.384-6.172-1.15-7.935-.767-1.763-2.224-2.798-4.37-3.105l-6.785-1.035v-1.955h13.8c1.61 0 2.721.192 3.335.575.69.383 1.61 1.188 2.76 2.415l51.98 56.695v-51.75c0-2.07-.345-3.412-1.035-4.025-.614-.69-1.649-1.112-3.105-1.265l-9.89-1.15v-1.84c2.146.23 6.286.345 12.42.345 6.133 0 10.273-.115 12.42-.345v1.84l-4.83.46c-1.304.153-2.109.69-2.415 1.61-.23.843-.345 2.3-.345 4.37v65.435h-2.76l-56.81-60.95v51.75Zm114.941-47.15c-2.22-10.043-7.74-15.065-16.56-15.065-4.14 0-7.63 1.188-10.47 3.565-2.76 2.377-4.14 5.175-4.14 8.395 0 2.53 1.12 4.868 3.34 7.015 2.3 2.147 7.05 5.098 14.26 8.855 7.21 3.68 12.42 6.938 15.64 9.775 3.3 2.837 4.94 7.053 4.94 12.65 0 6.44-2.26 11.653-6.78 15.64-4.45 3.91-10.7 5.865-18.75 5.865-7.43 0-14.22-1.802-20.35-5.405l1.26-17.135h1.61c.69 5.673 2.99 10.35 6.9 14.03 3.91 3.603 8.17 5.405 12.77 5.405 4.68 0 8.55-1.342 11.61-4.025 3.15-2.683 4.72-5.788 4.72-9.315 0-3.603-1.27-6.555-3.8-8.855-2.45-2.3-7.13-5.213-14.03-8.74-6.82-3.603-11.8-7.092-14.95-10.465-3.14-3.373-4.71-7.245-4.71-11.615 0-5.443 2.11-9.928 6.32-13.455 4.22-3.527 9.7-5.29 16.45-5.29s12.3 1.687 16.67 5.06l-.46 13.11h-1.49ZM370.2 6.91c8.854 0 16.155 2.02 21.902 6.058 5.903 4.039 8.854 9.941 8.854 17.708 0 6.835-2.408 13.281-7.223 19.339-4.66 5.903-11.029 11.029-19.106 15.378-7.922 4.35-16.698 7.534-26.329 9.553l-2.563-6.291c8.388-3.883 14.834-8.543 19.339-13.98 4.505-5.437 6.757-11.495 6.757-18.174 0-4.815-1.398-8.621-4.194-11.417-2.641-2.951-6.446-4.427-11.417-4.427-6.99 0-12.893 2.02-17.708 6.058-4.815 3.883-8.388 8.932-10.718 15.145a52.132 52.132 0 0 0-3.495 18.873v70.366c0 4.505-.699 8.388-2.097 11.65-1.243 3.107-3.34 6.291-6.291 9.553l1.398.932c6.99-4.349 14.368-6.524 22.135-6.524 5.126 0 11.262.621 18.407 1.864l6.524.932c3.417.466 6.912.699 10.485.699 5.437 0 10.252-1.398 14.446-4.194 4.349-2.796 8.388-6.602 12.116-11.417l5.592 3.961-18.873 40.775c-7.922-.621-18.019-2.175-30.29-4.66-7.456-1.398-13.98-2.485-19.572-3.262-5.592-.777-11.65-1.165-18.174-1.165-10.407 0-19.883 2.951-28.426 8.854l-6.99-6.524c3.573-2.951 6.136-6.369 7.689-10.252 1.709-4.039 2.563-9.242 2.563-15.611V83.567c0-14.29 3.107-27.261 9.32-38.911 6.369-11.65 15.223-20.815 26.562-27.494C342.318 10.327 355.443 6.91 370.2 6.91Zm116.833 51.493c9.009 0 16.543 2.33 22.601 6.99 6.058 4.505 9.087 11.106 9.087 19.805 0 6.99-3.806 14.834-11.417 23.533-7.456 8.543-16.388 16.543-26.795 23.999-10.252 7.301-19.028 12.582-26.329 15.844 6.524 10.407 16.077 15.611 28.659 15.611 6.99 0 13.98-1.942 20.97-5.825 7.145-4.039 13.203-9.32 18.174-15.844l4.66 5.592c-8.077 10.097-16.621 17.941-25.63 23.533-8.854 5.437-19.417 8.155-31.688 8.155-9.941 0-18.873-2.252-26.795-6.757-7.767-4.505-13.902-10.64-18.407-18.407-4.349-7.922-6.524-16.776-6.524-26.562 0-11.805 3.184-23.067 9.553-33.785 6.524-10.873 15.145-19.572 25.863-26.096 10.718-6.524 22.057-9.786 34.018-9.786Zm-13.281 15.145c-5.903 0-11.184 2.175-15.844 6.524-4.66 4.194-8.31 9.63-10.951 16.31-2.641 6.679-3.961 13.592-3.961 20.737 0 9.32 2.019 17.32 6.058 23.999 5.747-3.262 11.805-7.767 18.174-13.514 6.524-5.903 11.961-12.194 16.31-18.873 4.349-6.679 6.524-12.737 6.524-18.174 0-5.437-1.476-9.63-4.427-12.582-2.796-2.951-6.757-4.427-11.883-4.427Zm128.674-10.252c-10.252 7.3-18.329 15.611-24.232 24.931-5.747 9.165-8.621 19.96-8.621 32.387 0 6.835 1.321 13.747 3.961 20.737 2.641 6.99 6.524 12.815 11.65 17.475 5.126 4.505 11.262 6.757 18.407 6.757 9.01 0 16.233-3.262 21.669-9.786 5.592-6.524 8.388-14.601 8.388-24.232 0-7.301-1.941-14.679-5.825-22.135-3.728-7.611-8.776-13.98-15.145-19.106-6.368-5.281-13.203-8.233-20.504-8.854a88.933 88.933 0 0 1 10.485-9.786c3.884-2.951 8.699-6.524 14.446-10.718 11.184 3.728 20.038 10.64 26.562 20.737 6.68 10.097 10.019 21.203 10.019 33.319 0 10.718-2.407 21.125-7.223 31.222-4.66 10.097-11.494 18.329-20.504 24.698-8.854 6.213-19.183 9.32-30.989 9.32-9.786 0-18.795-2.252-27.028-6.757-8.077-4.66-14.523-10.951-19.339-18.873-4.815-8.077-7.223-16.931-7.223-26.562 0-16.621 5.204-31.222 15.611-43.804 10.563-12.582 24.232-21.358 41.008-26.329l4.427 5.359Zm162.312-4.893c5.437 0 9.398 1.631 11.883 4.893 2.486 3.107 4.039 6.835 4.66 11.184.622 4.194.932 9.63.932 16.31v64.774c0 1.864.544 3.65 1.631 5.359 1.243 1.553 2.719 2.33 4.427 2.33 2.33 0 4.35-.699 6.058-2.097 1.864-1.553 3.806-3.573 5.825-6.058l3.961 4.427c-2.796 5.437-6.679 10.019-11.65 13.747-4.815 3.573-10.019 5.359-15.611 5.359-7.456 0-13.048-2.097-16.776-6.291-3.728-4.349-5.592-10.407-5.592-18.174V93.12c0-2.175-.233-4.039-.699-5.592-.466-1.553-1.553-2.33-3.262-2.33-5.281 0-10.64 5.67-16.077 17.009-5.436 11.184-10.019 24.077-13.747 38.678-3.728 14.601-5.592 25.63-5.592 33.086l-27.261 6.058v-97.86c0-2.33-.543-4.272-1.631-5.825-1.087-1.553-2.64-2.33-4.66-2.33-2.174 0-4.349.932-6.524 2.796a24.143 24.143 0 0 0-5.126 6.058l-4.194-4.66c2.33-5.437 5.981-10.097 10.951-13.98 4.971-3.883 10.33-5.825 16.077-5.825 7.767 0 13.437 2.175 17.009 6.524 3.573 4.194 5.359 10.097 5.359 17.708v44.969h.932c4.194-17.242 10.408-33.086 18.64-47.532 8.388-14.446 18.407-21.669 30.057-21.669Zm111.873 4.893c-10.252 7.3-18.329 15.611-24.232 24.931-5.747 9.165-8.621 19.96-8.621 32.387 0 6.835 1.32 13.747 3.961 20.737 2.641 6.99 6.524 12.815 11.65 17.475 5.126 4.505 11.262 6.757 18.407 6.757 9.009 0 16.232-3.262 21.669-9.786 5.592-6.524 8.388-14.601 8.388-24.232 0-7.301-1.942-14.679-5.825-22.135-3.728-7.611-8.776-13.98-15.145-19.106-6.369-5.281-13.203-8.233-20.504-8.854a88.933 88.933 0 0 1 10.485-9.786c3.883-2.951 8.699-6.524 14.446-10.718 11.184 3.728 20.038 10.64 26.562 20.737 6.679 10.097 10.019 21.203 10.019 33.319 0 10.718-2.408 21.125-7.223 31.222-4.66 10.097-11.495 18.329-20.504 24.698-8.854 6.213-19.184 9.32-30.989 9.32-9.786 0-18.795-2.252-27.028-6.757-8.077-4.66-14.524-10.951-19.339-18.873-4.815-8.077-7.223-16.931-7.223-26.562 0-16.621 5.204-31.222 15.611-43.804 10.563-12.582 24.232-21.358 41.008-26.329l4.427 5.359Zm156.949-11.417c6.53 2.485 11.58 6.136 15.15 10.951 3.57 4.815 5.36 10.252 5.36 16.31 0 3.262-.47 6.835-1.4 10.718-.93 3.728-2.1 6.99-3.5 9.786l-39.37 78.288c-.47.932-1.4 1.709-2.8 2.33s-2.87.932-4.43.932c-1.86 0-3.568-.311-5.121-.932-1.398-.621-2.33-1.553-2.796-2.796l-38.911-85.744c-3.418-6.369-7.068-9.553-10.951-9.553-2.175 0-4.583 1.553-7.223 4.66l-3.728-3.262c1.864-6.058 5.592-11.34 11.184-15.844 5.592-4.66 11.727-6.99 18.407-6.99 4.194 0 7.689 2.252 10.485 6.757 2.951 4.35 5.747 9.63 8.388 15.844l30.286 68.269 16.78-34.484c2.95-6.213 4.43-11.417 4.43-15.611 0-5.903-1.56-11.029-4.66-15.378-3.11-4.35-7.46-7.844-13.05-10.485l17.47-23.766Z"/>
  </g>
  <defs>
    <clipPath id="a">
      <path fill="#fff" d="M0 0h1107v310H0z"/>
    </clipPath>
  </defs>
</svg>
