<svg xmlns="http://www.w3.org/2000/svg" width="92" height="97" fill="none" viewBox="0 0 92 97">
  <path stroke="#fff" stroke-linejoin="round" stroke-width="2" d="M11.945 64V31.407m0 0L6.312 34.66a1.055 1.055 0 0 1-1.437-.382l-3.73-6.465c-.301-.52-.122-1.164.44-1.469L45.478 1l1.058.008 43.93 25.363c.504.289.676.93.387 1.433l-3.73 6.465c-.316.39-.806.575-1.622.231l-5.449-3.094m-68.106 0L45.477 11.5h1.058l33.516 19.906m0 0V64.5"/>
  <path fill="#fff" d="M29.485 53.099a3.788 3.788 0 0 1-2.697-1.117l-2.671-2.672A3.788 3.788 0 0 1 23 46.614c0-1.019.397-1.976 1.117-2.697l18.8-18.8A3.788 3.788 0 0 1 45.614 24c1.019 0 1.976.397 2.697 1.117l2.67 2.671a3.788 3.788 0 0 1 1.118 2.697 3.789 3.789 0 0 1-1.117 2.696l-18.8 18.8a3.79 3.79 0 0 1-2.697 1.118ZM45.614 26.28c-.41 0-.794.16-1.084.449l-18.8 18.8c-.29.29-.45.674-.45 1.084 0 .41.16.794.45 1.084l2.671 2.67c.598.598 1.57.598 2.168 0l18.8-18.8a1.535 1.535 0 0 0 0-2.167l-2.672-2.671a1.52 1.52 0 0 0-1.083-.45ZM59.634 65c-.292 0-.584-.111-.806-.334l-9.181-9.18a1.14 1.14 0 0 1 0-1.614l3.225-3.226a1.14 1.14 0 0 1 1.613 0l9.181 9.182a1.14 1.14 0 0 1 0 1.613l-3.225 3.225a1.137 1.137 0 0 1-.807.334Zm-7.568-10.32 7.568 7.568 1.613-1.613-7.568-7.568-1.613 1.613Z"/>
  <path fill="#fff" d="M52.065 54.205c-.291 0-.583-.111-.806-.334l-.403-.403a7.366 7.366 0 0 1-2.171-5.242c0-1.98.77-3.842 2.17-5.242l6.856-6.855a3.4 3.4 0 0 0 1.002-2.42 3.4 3.4 0 0 0-1.002-2.419l-3.226-3.226a3.4 3.4 0 0 0-2.42-1.002 3.4 3.4 0 0 0-2.419 1.002 1.14 1.14 0 1 1-1.613-1.613 5.665 5.665 0 0 1 4.032-1.67c1.524 0 2.956.593 4.033 1.67l3.226 3.226a5.665 5.665 0 0 1 1.67 4.032 5.665 5.665 0 0 1-1.67 4.033l-6.855 6.855a5.098 5.098 0 0 0-1.504 3.628 5.1 5.1 0 0 0 1.504 3.63l.403.403a1.14 1.14 0 0 1-.807 1.947Z"/>
  <path stroke="#fff" stroke-linecap="round" stroke-width="2" d="m15.354 88.126.965-.259m61.816-16.576.966-.259"/>
  <rect width="77.177" height="12.456" x="8.234" y="83.501" stroke="#fff" stroke-linejoin="round" stroke-width="2" rx="1" transform="rotate(-15.01 8.234 83.501)"/>
  <path stroke="#fff" stroke-linecap="round" stroke-width="2" d="m78.885 88.126-.966-.259M16.104 71.291l-.966-.259m56.366 8.481 13.522 3.73a1 1 0 0 1 .694 1.244L82.779 94.57a1 1 0 0 1-1.222.685l-34.053-9.243m-2-12.5-33.039-9.718a1 1 0 0 0-1.242.68L8.29 74.53a1 1 0 0 0 .703 1.246l14.01 3.737"/>
</svg>
