<svg xmlns="http://www.w3.org/2000/svg" width="90" height="90" fill="none" viewBox="0 0 90 90">
  <path fill="#fff" fill-rule="evenodd" d="m58.028 56.078-8.64 11.57 1.163 1.301a10.507 10.507 0 0 1 9.672 4.426h12.68a4.06 4.06 0 0 0 4.047-4.047V29.246L45.005 10.801 13.06 29.246v40.086c0 1.11.457 2.121 1.188 2.856l-.004.004c.812.73 1.64 1.187 2.86 1.187l16.136-.004 2.25-2.707-8.05-8.984c-8.098.886-13.442-7.196-10.903-14.145.266-.735 1.235-.942 1.77-.344l4.945 5.52 3.746-.786 1.192-3.64c-.711-.793-5.051-5.415-5.184-5.973-.543-2.246 4.969-1.516 6.426-1.074 5.293 1.605 8.418 6.785 7.219 12.195l6.824 7.617 8.004-9.637c.148-1.457-.035-2.699-.512-3.68-1.867-3.867-7.215-2.777-10.793-1.05-1.066.515-2.062-.883-1.16-1.727 9.476-9.059 16.469-5.887 25.273 1.043.32.254.457.656.383 1.035-.504 2.532 1.984 4.512 2.949 4 2.312-1.226 2.676-.296 5.586 1.996a2.317 2.317 0 0 1 .386 3.254l-4.902 6.223a2.317 2.317 0 0 1-3.254.387c-3.312-2.61-3.738-2.371-3.254-4.934.223-1.16-2.937-3-4.152-1.886h-.001ZM39.898 21.36c4.966 0 4.177-.785 4.177 4.176a.697.697 0 0 1-.696.695c-4.964 0-4.175.786-4.175-4.175a.694.694 0 0 1 .695-.696Zm6.727 6.727c4.965 0 4.176-.785 4.176 4.176a.697.697 0 0 1-.695.695c-4.965 0-4.176.785-4.176-4.176 0-.383.313-.695.696-.695Zm-6.726 0c4.965 0 4.176-.785 4.176 4.176a.697.697 0 0 1-.696.695c-4.964 0-4.175.785-4.175-4.176a.694.694 0 0 1 .695-.695Zm6.727-6.727c4.964 0 4.175-.785 4.175 4.176a.697.697 0 0 1-.695.695c-4.965 0-4.176.786-4.176-4.175 0-.383.313-.696.696-.696ZM61.37 75.484c4.141 10.293-8.785 19.762-17.508 11.008-1.93-1.937-2.91-5.074-2.73-7.789l-6.66 8.918c-1.977 2.645-3.973 2.301-6.652.41a1.803 1.803 0 0 1-.09-.07c-2.473-2.176-3.262-4.027-1.153-6.562l4.915-5.915h-14.39a6.134 6.134 0 0 1-4.344-1.808l-.004.004a6.139 6.139 0 0 1-1.809-4.348l.004-38.867-5.633 3.254a1.055 1.055 0 0 1-1.437-.383l-3.73-6.465c-.302-.52-.122-1.164.44-1.468L44.482.059l1.058.007L89.47 25.43c.504.29.676.93.387 1.434l-3.73 6.465a1.055 1.055 0 0 1-1.438.386v.004l-5.633-3.254v38.868c0 3.386-2.765 6.152-6.152 6.152H61.37Zm17.095-47.793L45.528 8.675a1.054 1.054 0 0 0-1.063.004L5.176 31.367l-2.68-4.64L45.004 2.184l42.512 24.543-2.68 4.64-6.37-3.676ZM58.814 75.054c2.066 3.415 1.437 7.938-1.575 10.602-6.347 5.61-15.887-.508-13.723-8.468h-.004c.141-.512-.09-.817-.386-1.149l4.98-6.672 1.238 1.383c.825.938 1.891-.402 5.102.738 2.387.848 3.16 1.93 4.367 3.566Zm-24.215-.03 18.137-21.837 3.035 2.39L32.783 86.36c-.512.683-.934 1.039-1.367 1.058-1.196.051-3.696-1.93-3.926-3.09-.086-.433.16-.93.703-1.585l6.405-7.719Zm18.215.741-3.747.785-1.191 3.641 2.555 2.848 3.746-.785 1.191-3.641-2.555-2.848Zm-4.774-1.148a1.05 1.05 0 0 0-.785.703l-1.57 4.793c-.13.394-.012.813.27 1.082l3.312 3.7c.258.288.64.401.996.327v.004l4.933-1.035c.383-.078.672-.355.785-.703l1.57-4.793a1.048 1.048 0 0 0-.269-1.082l-3.312-3.7a1.046 1.046 0 0 0-.996-.327l-4.934 1.03ZM36.85 69.03l-8.2-9.152a1.048 1.048 0 0 0-.957-.352c-5.863.914-10.254-3.957-9.61-9.437l3.973 4.433c.238.301.637.457 1.035.375l4.891-1.027c.375-.063.703-.324.828-.715l1.57-4.793h-.003a1.052 1.052 0 0 0-.215-1.023l-4.016-4.48c5.516-.044 9.883 4.862 8.328 10.581h.004c-.09.332-.016.7.23.977l7.407 8.27-5.266 6.343Zm26.323-18.672a6 6 0 0 0 1.484 1.82c2.407 1.965 4 .567 4.606.422l2.719 2.223-4.945 6.383-.297.03c-3.102-2.448-2.711-1.788-2.536-2.66.68-3.445-4.277-5.964-6.949-4.515l-3.64-2.867c.367-5.54-3.387-8.715-8.75-8.121 6.492-3.672 11.883-.285 17.652 4.215a5.583 5.583 0 0 0 .656 3.07Zm6.063 2.223.007.015c-.003-.008-.02-.027-.007-.015Z" clip-rule="evenodd"/>
</svg>
