<svg xmlns="http://www.w3.org/2000/svg" width="200" height="200" fill="none" viewBox="0 0 200 200">
  <path stroke="#fff" stroke-linecap="round" stroke-linejoin="round" stroke-width="4.167" d="M80.447 51.946a100.388 100.388 0 0 1-3.672-18.268c-.654-6.172-6.037-10.761-12.244-10.761H35.743c-7.403 0-13.106 6.394-12.454 13.768 6.564 74.285 65.738 133.459 140.023 140.023 7.375.652 13.768-5.03 13.768-12.433v-25.664c0-9.37-4.589-14.734-10.761-15.389a100.328 100.328 0 0 1-18.267-3.672c-7.195-2.158-14.983-.126-20.294 5.184l-12.319 12.32a130.3 130.3 0 0 1-52.495-52.496l12.319-12.32c5.31-5.31 7.342-13.099 5.184-20.292Z"/>
</svg>
