<svg xmlns="http://www.w3.org/2000/svg" width="92" height="78" fill="none" viewBox="0 0 92 78">
  <path fill="#fff" fill-rule="evenodd" d="M40.895 22.3c4.965 0 4.176-.785 4.176 4.176a.697.697 0 0 1-.695.695c-4.965 0-4.176.785-4.176-4.175a.694.694 0 0 1 .695-.696Zm6.727 6.727c4.965 0 4.176-.785 4.176 4.176a.697.697 0 0 1-.695.695c-4.965 0-4.176.785-4.176-4.176 0-.383.312-.695.695-.695Zm-6.727 0c4.965 0 4.176-.785 4.176 4.176a.697.697 0 0 1-.695.695c-4.965 0-4.176.785-4.176-4.176a.694.694 0 0 1 .695-.695Zm6.727-6.727c4.965 0 4.176-.785 4.176 4.176a.697.697 0 0 1-.695.695c-4.965 0-4.176.785-4.176-4.175 0-.383.312-.696.695-.696Z" clip-rule="evenodd"/>
  <path stroke="#fff" stroke-linejoin="round" stroke-width="2" d="m11.945 31.407-.004 38.867c0 1.695.696 3.234 1.809 4.347l.004-.004a6.134 6.134 0 0 0 4.344 1.809h55.801c3.387 0 6.152-2.766 6.152-6.153V31.406m-68.106 0L6.312 34.66a1.055 1.055 0 0 1-1.437-.382l-3.73-6.465c-.301-.52-.122-1.164.44-1.469L45.478 1l1.058.008 43.93 25.363c.504.289.676.93.387 1.433l-3.73 6.465c-.316.39-.806.575-1.622.231l-5.449-3.094m-68.106 0L45.477 11.5h1.058l33.516 19.906"/>
</svg>
